<?xml version="1.0" encoding="utf-8"?>
<!-- Generator: Adobe Illustrator 16.0.0, SVG Export Plug-In . SVG Version: 6.00 Build 0)  -->
<!DOCTYPE svg PUBLIC "-//W3C//DTD SVG 1.1//EN" "http://www.w3.org/Graphics/SVG/1.1/DTD/svg11.dtd">
<svg version="1.1" id="Layer_1" xmlns="http://www.w3.org/2000/svg" xmlns:xlink="http://www.w3.org/1999/xlink" x="0px" y="0px"
	 width="24px" height="24px" viewBox="0 0 24 24" enable-background="new 0 0 24 24" xml:space="preserve">
<path fill-rule="evenodd" clip-rule="evenodd" d="M18.327,19.691c0.485-0.399,0.935-0.853,1.348-1.354l2.044,0.683
	c1.128-1.563,1.82-3.31,2.11-5.097l-1.925-0.963c0.061-0.636,0.059-1.275-0.002-1.908l1.93-0.965
	c-0.293-1.815-1.001-3.564-2.105-5.097l-2.049,0.684c-0.399-0.485-0.852-0.935-1.353-1.348l0.681-2.043
	c-1.572-1.133-3.331-1.831-5.131-2.117l-0.962,1.927c-0.612-0.057-1.227-0.055-1.836,0.001l-0.966-1.93
	C8.283,0.452,6.52,1.162,4.979,2.272l0.682,2.049c-0.484,0.4-0.934,0.854-1.347,1.354L2.27,4.993
	c-1.126,1.562-1.821,3.309-2.111,5.096l1.926,0.963c-0.062,0.638-0.061,1.276,0,1.908l-1.929,0.966
	c0.29,1.79,0.985,3.516,2.064,5.031l4.373-4.373c-0.376-0.785-0.592-1.661-0.592-2.591c0.005-3.31,2.691-5.996,6.001-6.001
	c0.544,0.001,1.07,0.078,1.573,0.214L10.192,9.59l1.1,3.119l3.12,1.101l3.37-3.37c0.13,0.492,0.206,1.004,0.205,1.537
	c-0.005,3.31-2.691,5.996-6,6c-0.918,0.003-1.784-0.209-2.562-0.577l-4.372,4.372c1.554,1.106,3.287,1.793,5.062,2.073l0.962-1.925
	c0.612,0.058,1.226,0.056,1.837-0.003l0.965,1.933c1.828-0.288,3.592-0.999,5.131-2.108L18.327,19.691z"/>
</svg>
